<?xml version="1.0" encoding="UTF-8"?>
<svg xmlns="http://www.w3.org/2000/svg" xmlns:xlink="http://www.w3.org/1999/xlink" width="600pt" height="400pt" viewBox="0 0 600 400" version="1.1">
<g id="surface1">
<path style="fill-rule:nonzero;fill:rgb(0%,0%,0%);fill-opacity:1;stroke-width:10;stroke-linecap:square;stroke-linejoin:miter;stroke:rgb(0%,0%,0%);stroke-opacity:1;stroke-miterlimit:4;" d="M 280.875 371.90625 L 152.628906 309.277344 L 190.4375 231.636719 L 283.21875 93.3125 L 444.972656 156.304688 L 370.894531 265.179688 L 338.398438 303.160156 L 280.875 371.90625 "/>
<path style=" stroke:none;fill-rule:nonzero;fill:rgb(100%,100%,100%);fill-opacity:1;" d="M 280.875 371.90625 L 152.628906 309.277344 L 190.4375 231.636719 L 283.21875 93.3125 L 444.972656 156.304688 L 370.894531 265.179688 L 338.398438 303.160156 L 280.875 371.90625 "/>
<path style="fill-rule:nonzero;fill:rgb(100%,100%,100%);fill-opacity:1;stroke-width:6;stroke-linecap:butt;stroke-linejoin:miter;stroke:rgb(100%,100%,100%);stroke-opacity:1;stroke-miterlimit:4;" d="M 294.148438 303.457031 L 295.167969 304.113281 L 303.851562 308.378906 L 323.316406 317.402344 L 320.507812 320.738281 L 319.484375 320.347656 L 318.210938 321.859375 L 317.289062 321.511719 L 317.597656 321.164062 L 307.019531 315.929688 L 293.125 309.808594 L 292.253906 309.34375 L 291.539062 308.84375 L 290.824219 307.871094 L 287.453125 299.039062 L 287.09375 298.304688 L 286.6875 297.488281 L 286.125 296.367188 L 285.769531 295.859375 L 285.308594 295.433594 L 284.082031 295.28125 L 282.652344 294.773438 L 270.644531 292.21875 L 255.675781 289.894531 L 246.992188 288.34375 L 239.328125 286.679688 L 236.925781 286.445312 L 234.984375 286.445312 L 233.757812 286.328125 L 232.992188 286.25 L 229.414062 286.214844 L 227.578125 286.328125 L 225.535156 286.484375 L 223.589844 286.601562 L 222.773438 286.679688 L 222.109375 286.832031 L 221.496094 287.144531 L 221.140625 287.570312 L 221.140625 288.113281 L 228.546875 291.945312 L 251.433594 302.640625 L 250.054688 304.382812 L 259.304688 308.84375 L 256.902344 311.746094 L 213.269531 290.667969 L 211.789062 291.171875 L 209.898438 291.792969 L 208.519531 292.453125 L 203.5625 295.976562 L 198.761719 300.78125 L 203.054688 303.261719 L 226.09375 314.5 L 222.160156 319.34375 L 217.101562 316.707031 L 216.847656 315.738281 L 216.691406 315.429688 L 216.335938 315.15625 L 210.617188 312.714844 L 210 312.988281 L 200.957031 308.453125 L 198.660156 307.136719 L 198.402344 306.710938 L 195.847656 305.585938 L 194.777344 305.355469 L 183.078125 319.070312 L 182.769531 318.953125 L 167.597656 337.207031 L 166.777344 338.445312 L 162.027344 344.410156 L 162.4375 345.574219 L 171.429688 349.796875 L 169.488281 352.433594 L 160.648438 348.324219 L 160.035156 348.132812 L 159.472656 348.171875 L 158.914062 348.363281 L 158.300781 348.984375 L 151.605469 357.703125 L 150.992188 358.285156 L 150.6875 358.941406 L 150.429688 360.335938 L 146.34375 364.988281 L 145.78125 365.453125 L 145.167969 365.761719 L 144.148438 366.421875 L 142.820312 367.46875 L 137.046875 376.574219 L 133.878906 370.996094 L 140.214844 362.855469 L 139.292969 360.183594 L 140.570312 358.90625 L 142.511719 356.851562 L 145.730469 353.246094 L 146.496094 352.9375 L 148.949219 349.914062 L 166.933594 328.640625 L 177.765625 316.472656 L 176.945312 314.617188 L 178.222656 314.152344 L 187.980469 304.035156 L 197.28125 293.769531 L 198.8125 292.722656 L 201.007812 291.09375 L 203.410156 289.46875 L 205.761719 287.839844 L 208.109375 286.714844 L 212.914062 284.777344 L 217.359375 283.421875 L 221.699219 282.492188 L 222.925781 282.339844 L 223.4375 282.53125 L 224.253906 282.6875 L 229.464844 282.378906 L 235.136719 282.339844 L 239.632812 282.53125 L 240.246094 282.457031 L 240.960938 282.457031 L 241.933594 282.492188 L 243.105469 282.6875 L 248.726562 283.65625 L 252.558594 284.082031 L 272.332031 286.871094 L 271.921875 287.144531 L 286.480469 289.542969 L 311.003906 260.097656 L 311.617188 255.835938 L 312.894531 241.847656 L 312.945312 240.996094 L 325.464844 222.632812 L 336.398438 206.902344 L 337.316406 205.082031 L 356.78125 176.140625 L 362.761719 178.386719 L 355.964844 188.539062 L 343.039062 207.484375 L 342.527344 207.714844 L 342.070312 208.453125 L 332.257812 223.5625 L 323.0625 236.738281 L 319.382812 242.46875 L 318.824219 243.515625 L 319.230469 243.59375 L 318.566406 254.324219 L 318.105469 261.414062 L 308.246094 272.730469 L 294.246094 289.273438 L 290.824219 293.730469 L 290.671875 294.078125 L 290.722656 294.351562 L 294.148438 303.457031 "/>
<path style=" stroke:none;fill-rule:nonzero;fill:rgb(0%,0%,0%);fill-opacity:1;" d="M 294.148438 303.457031 L 295.167969 304.113281 L 303.851562 308.378906 L 323.316406 317.402344 L 320.507812 320.738281 L 319.484375 320.347656 L 318.210938 321.859375 L 317.289062 321.511719 L 317.597656 321.164062 L 307.019531 315.929688 L 293.125 309.808594 L 292.253906 309.34375 L 291.539062 308.84375 L 290.824219 307.871094 L 287.453125 299.039062 L 287.09375 298.304688 L 286.6875 297.488281 L 286.125 296.367188 L 285.769531 295.859375 L 285.308594 295.433594 L 284.082031 295.28125 L 282.652344 294.773438 L 270.644531 292.21875 L 255.675781 289.894531 L 246.992188 288.34375 L 239.328125 286.679688 L 236.925781 286.445312 L 234.984375 286.445312 L 233.757812 286.328125 L 232.992188 286.25 L 229.414062 286.214844 L 227.578125 286.328125 L 225.535156 286.484375 L 223.589844 286.601562 L 222.773438 286.679688 L 222.109375 286.832031 L 221.496094 287.144531 L 221.140625 287.570312 L 221.140625 288.113281 L 228.546875 291.945312 L 251.433594 302.640625 L 250.054688 304.382812 L 259.304688 308.84375 L 256.902344 311.746094 L 213.269531 290.667969 L 211.789062 291.171875 L 209.898438 291.792969 L 208.519531 292.453125 L 203.5625 295.976562 L 198.761719 300.78125 L 203.054688 303.261719 L 226.09375 314.5 L 222.160156 319.34375 L 217.101562 316.707031 L 216.847656 315.738281 L 216.691406 315.429688 L 216.335938 315.15625 L 210.617188 312.714844 L 210 312.988281 L 200.957031 308.453125 L 198.660156 307.136719 L 198.402344 306.710938 L 195.847656 305.585938 L 194.777344 305.355469 L 183.078125 319.070312 L 182.769531 318.953125 L 167.597656 337.207031 L 166.777344 338.445312 L 162.027344 344.410156 L 162.4375 345.574219 L 171.429688 349.796875 L 169.488281 352.433594 L 160.648438 348.324219 L 160.035156 348.132812 L 159.472656 348.171875 L 158.914062 348.363281 L 158.300781 348.984375 L 151.605469 357.703125 L 150.992188 358.285156 L 150.6875 358.941406 L 150.429688 360.335938 L 146.34375 364.988281 L 145.78125 365.453125 L 145.167969 365.761719 L 144.148438 366.421875 L 142.820312 367.46875 L 137.046875 376.574219 L 133.878906 370.996094 L 140.214844 362.855469 L 139.292969 360.183594 L 140.570312 358.90625 L 142.511719 356.851562 L 145.730469 353.246094 L 146.496094 352.9375 L 148.949219 349.914062 L 166.933594 328.640625 L 177.765625 316.472656 L 176.945312 314.617188 L 178.222656 314.152344 L 187.980469 304.035156 L 197.28125 293.769531 L 198.8125 292.722656 L 201.007812 291.09375 L 203.410156 289.46875 L 205.761719 287.839844 L 208.109375 286.714844 L 212.914062 284.777344 L 217.359375 283.421875 L 221.699219 282.492188 L 222.925781 282.339844 L 223.4375 282.53125 L 224.253906 282.6875 L 229.464844 282.378906 L 235.136719 282.339844 L 239.632812 282.53125 L 240.246094 282.457031 L 240.960938 282.457031 L 241.933594 282.492188 L 243.105469 282.6875 L 248.726562 283.65625 L 252.558594 284.082031 L 272.332031 286.871094 L 271.921875 287.144531 L 286.480469 289.542969 L 311.003906 260.097656 L 311.617188 255.835938 L 312.894531 241.847656 L 312.945312 240.996094 L 325.464844 222.632812 L 336.398438 206.902344 L 337.316406 205.082031 L 356.78125 176.140625 L 362.761719 178.386719 L 355.964844 188.539062 L 343.039062 207.484375 L 342.527344 207.714844 L 342.070312 208.453125 L 332.257812 223.5625 L 323.0625 236.738281 L 319.382812 242.46875 L 318.824219 243.515625 L 319.230469 243.59375 L 318.566406 254.324219 L 318.105469 261.414062 L 308.246094 272.730469 L 294.246094 289.273438 L 290.824219 293.730469 L 290.671875 294.078125 L 290.722656 294.351562 L 294.148438 303.457031 "/>
</g>
</svg>
